<svg xmlns="http://www.w3.org/2000/svg" viewBox="0 0 89.7 27.1"><g id="Isolation_Mode"><path fill="#13d0e9" d="M70.9 16.5c-2.1-4.2-4-8.9-4.5-13.1h-3.9c.7 5.6 3.9 12.1 6.5 17.2-.8 1.5-1.4 2.8-3.2 2.8h-.1V27c4.1 0 5.7-3.4 7.2-6.5 2.6-5.1 5.8-11.6 6.4-17.3h-3.9c-.5 4.4-2.5 9.1-4.5 13.3zM58.6 14.1V0h-3.9v14.7c.2 3.1 2 5.9 5.9 5.9h2.6v-3.7h-1.7c-2.1.1-2.9-1.1-2.9-2.8zM87.9 16.9c-2.1 0-2.9-1.1-2.9-2.8V7h4.6V3.3H85V0h-3.9l.1 14.7c.2 3.1 2 5.9 5.9 5.9h2.6v-3.7h-1.8zM44.9 3.3h-6.1v23.8h3.9v-6.6h2.2c4.5 0 8.1-4 8.1-8.4v-.3c0-4.5-3.7-8.5-8.1-8.5zm4.2 8.8c0 2.3-1.9 4.6-4.2 4.6h-2.2V7.2h2.2c2.3 0 4.2 2.2 4.2 4.6v.3zM35.1 12.1c-.7-.6-1.6-1.1-2.8-1.7-.9-.4-3-1.2-3-2.3 0-.8.5-1.2 2.5-1.2h3.5V3.4h-3.5c-3.5 0-6.4.8-6.3 4.9 0 1.4.6 2.6 1.7 3.6.7.6 1.5 1.1 2.8 1.7.9.4 3 1.2 3 2.3 0 .8-.5 1.2-2.5 1.2H26v3.6h4.5c3.7 0 6.4-.8 6.3-4.9 0-1.5-.5-2.8-1.7-3.7zM6.5 3.6L2.5 0 0 2.7l4 3.6C7.8 9.8 7.8 13.5 7.7 19v1.7h3.7v-1.6c.1-5.9.1-10.9-4.9-15.5zM11.7 7h9.4V3.3H8.8C10 4.4 11 5.8 11.7 7z"/></g></svg>
